{
  "accessors": [
    {
      "bufferView": 2,
      "componentType": 5126,
      "count": 5227,
      "max": [
        36.670249938964844,
        12.586181640625,
        6.7744026184082031
      ],
      "min": [
        -6.7450265884399414,
        -1.442955493927002,
        -13.092801094055176
      ],
      "type": "VEC3"
    },
    {
      "bufferView": 2,
      "byteOffset": 62724,
      "componentType": 5126,
      "count": 5227,
      "max": [
        1,
        1,
        1
      ],
      "min": [
        -1,
        -1,
        -1
      ],
      "type": "VEC3"
    },
    {
      "bufferView": 3,
      "componentType": 5126,
      "count": 5227,
      "max": [
        1,
        1,
        1,
        1
      ],
      "min": [
        -1,
        -1,
        -1,
        1
      ],
      "type": "VEC4"
    },
    {
      "bufferView": 1,
      "componentType": 5126,
      "count": 5227,
      "max": [
        0.99511730670928955,
        0.99701303243637085
      ],
      "min": [
        0.0029870225116610527,
        0.0029870225116610527
      ],
      "type": "VEC2"
    },
    {
      "bufferView": 0,
      "componentType": 5125,
      "count": 21090,
      "max": [
        5226
      ],
      "min": [
        0
      ],
      "type": "SCALAR"
    },
    {
      "bufferView": 2,
      "byteOffset": 125448,
      "componentType": 5126,
      "count": 204,
      "max": [
        2.1555795669555664,
        2.1555774211883545,
        0
      ],
      "min": [
        -2.1555831432342529,
        -2.1555850505828857,
        -3.6102981567382812
      ],
      "type": "VEC3"
    },
    {
      "bufferView": 2,
      "byteOffset": 127896,
      "componentType": 5126,
      "count": 204,
      "max": [
        1,
        1,
        0.81073635816574097
      ],
      "min": [
        -1,
        -1,
        -1
      ],
      "type": "VEC3"
    },
    {
      "bufferView": 3,
      "byteOffset": 83632,
      "componentType": 5126,
      "count": 204,
      "max": [
        0.96863692998886108,
        0.83841603994369507,
        1,
        1
      ],
      "min": [
        -0.9649055004119873,
        -0.96251028776168823,
        -0.98472535610198975,
        1
      ],
      "type": "VEC4"
    },
    {
      "bufferView": 1,
      "byteOffset": 41816,
      "componentType": 5126,
      "count": 204,
      "max": [
        0.64201951026916504,
        0.99947506189346313
      ],
      "min": [
        0.0005249211098998785,
        0.0005249211098998785
      ],
      "type": "VEC2"
    },
    {
      "bufferView": 0,
      "byteOffset": 84360,
      "componentType": 5125,
      "count": 912,
      "max": [
        203
      ],
      "min": [
        0
      ],
      "type": "SCALAR"
    },
    {
      "bufferView": 2,
      "byteOffset": 130344,
      "componentType": 5126,
      "count": 204,
      "max": [
        2.1555795669555664,
        2.1555774211883545,
        0
      ],
      "min": [
        -2.1555831432342529,
        -2.1555850505828857,
        -3.6102981567382812
      ],
      "type": "VEC3"
    },
    {
      "bufferView": 2,
      "byteOffset": 132792,
      "componentType": 5126,
      "count": 204,
      "max": [
        1,
        1,
        0.81073635816574097
      ],
      "min": [
        -1,
        -1,
        -1
      ],
      "type": "VEC3"
    },
    {
      "bufferView": 3,
      "byteOffset": 86896,
      "componentType": 5126,
      "count": 204,
      "max": [
        0.96863692998886108,
        0.83841603994369507,
        1,
        1
      ],
      "min": [
        -0.9649055004119873,
        -0.96251028776168823,
        -0.98472535610198975,
        1
      ],
      "type": "VEC4"
    },
    {
      "bufferView": 1,
      "byteOffset": 43448,
      "componentType": 5126,
      "count": 204,
      "max": [
        0.64201951026916504,
        0.99947506189346313
      ],
      "min": [
        0.0005249211098998785,
        0.0005249211098998785
      ],
      "type": "VEC2"
    },
    {
      "bufferView": 0,
      "byteOffset": 88008,
      "componentType": 5125,
      "count": 912,
      "max": [
        203
      ],
      "min": [
        0
      ],
      "type": "SCALAR"
    },
    {
      "bufferView": 2,
      "byteOffset": 135240,
      "componentType": 5126,
      "count": 204,
      "max": [
        2.1555795669555664,
        2.1555774211883545,
        0
      ],
      "min": [
        -2.1555831432342529,
        -2.1555850505828857,
        -3.6102981567382812
      ],
      "type": "VEC3"
    },
    {
      "bufferView": 2,
      "byteOffset": 137688,
      "componentType": 5126,
      "count": 204,
      "max": [
        1,
        1,
        0.81073635816574097
      ],
      "min": [
        -1,
        -1,
        -1
      ],
      "type": "VEC3"
    },
    {
      "bufferView": 3,
      "byteOffset": 90160,
      "componentType": 5126,
      "count": 204,
      "max": [
        0.96863692998886108,
        0.83841603994369507,
        1,
        1
      ],
      "min": [
        -0.9649055004119873,
        -0.96251028776168823,
        -0.98472535610198975,
        1
      ],
      "type": "VEC4"
    },
    {
      "bufferView": 1,
      "byteOffset": 45080,
      "componentType": 5126,
      "count": 204,
      "max": [
        0.64201951026916504,
        0.99947506189346313
      ],
      "min": [
        0.0005249211098998785,
        0.0005249211098998785
      ],
      "type": "VEC2"
    },
    {
      "bufferView": 0,
      "byteOffset": 91656,
      "componentType": 5125,
      "count": 912,
      "max": [
        203
      ],
      "min": [
        0
      ],
      "type": "SCALAR"
    }
  ],
  "asset": {
    "extras": {
      "author": "gorzi (https://sketchfab.com/gorzi90)",
      "license": "CC-BY-4.0 (http://creativecommons.org/licenses/by/4.0/)",
      "source": "https://sketchfab.com/3d-models/counter-47e1be52888640f89ab6dd8eeb008b35",
      "title": "Counter"
    },
    "generator": "Sketchfab-10.11.2",
    "version": "2.0"
  },
  "bufferViews": [
    {
      "buffer": 0,
      "byteLength": 95304,
      "byteOffset": 0,
      "name": "floatBufferViews",
      "target": 34963
    },
    {
      "buffer": 0,
      "byteLength": 46712,
      "byteOffset": 95304,
      "byteStride": 8,
      "name": "floatBufferViews",
      "target": 34962
    },
    {
      "buffer": 0,
      "byteLength": 140136,
      "byteOffset": 142016,
      "byteStride": 12,
      "name": "floatBufferViews",
      "target": 34962
    },
    {
      "buffer": 0,
      "byteLength": 93424,
      "byteOffset": 282152,
      "byteStride": 16,
      "name": "floatBufferViews",
      "target": 34962
    }
  ],
  "buffers": [
    {
      "byteLength": 375576,
      "uri": "scene.bin"
    }
  ],
  "images": [
    {
      "uri": "textures/counter_baseColor.jpeg"
    },
    {
      "uri": "textures/counter_metallicRoughness.png"
    },
    {
      "uri": "textures/counter_normal.png"
    },
    {
      "uri": "textures/handle_baseColor.jpeg"
    },
    {
      "uri": "textures/handle_metallicRoughness.png"
    },
    {
      "uri": "textures/handle_normal.png"
    }
  ],
  "materials": [
    {
      "doubleSided": true,
      "emissiveFactor": [
        0,
        0,
        0
      ],
      "name": "counter",
      "normalTexture": {
        "index": 2,
        "scale": 1,
        "texCoord": 0
      },
      "occlusionTexture": {
        "index": 1,
        "strength": 0.76173169411864849,
        "texCoord": 0
      },
      "pbrMetallicRoughness": {
        "baseColorFactor": [
          1,
          1,
          1,
          1
        ],
        "baseColorTexture": {
          "index": 0,
          "texCoord": 0
        },
        "metallicFactor": 0,
        "metallicRoughnessTexture": {
          "index": 1,
          "texCoord": 0
        },
        "roughnessFactor": 1
      }
    },
    {
      "doubleSided": true,
      "emissiveFactor": [
        0,
        0,
        0
      ],
      "name": "handle",
      "normalTexture": {
        "index": 5,
        "scale": 1,
        "texCoord": 0
      },
      "pbrMetallicRoughness": {
        "baseColorFactor": [
          1,
          1,
          1,
          1
        ],
        "baseColorTexture": {
          "index": 3,
          "texCoord": 0
        },
        "metallicFactor": 1,
        "metallicRoughnessTexture": {
          "index": 4,
          "texCoord": 0
        },
        "roughnessFactor": 1
      }
    }
  ],
  "meshes": [
    {
      "name": "Plane_counter_0",
      "primitives": [
        {
          "attributes": {
            "NORMAL": 1,
            "POSITION": 0,
            "TANGENT": 2,
            "TEXCOORD_0": 3
          },
          "indices": 4,
          "material": 0,
          "mode": 4
        }
      ]
    },
    {
      "name": "Circle_handle_0",
      "primitives": [
        {
          "attributes": {
            "NORMAL": 6,
            "POSITION": 5,
            "TANGENT": 7,
            "TEXCOORD_0": 8
          },
          "indices": 9,
          "material": 1,
          "mode": 4
        }
      ]
    },
    {
      "name": "Circle.001_handle_0",
      "primitives": [
        {
          "attributes": {
            "NORMAL": 11,
            "POSITION": 10,
            "TANGENT": 12,
            "TEXCOORD_0": 13
          },
          "indices": 14,
          "material": 1,
          "mode": 4
        }
      ]
    },
    {
      "name": "Circle.002_handle_0",
      "primitives": [
        {
          "attributes": {
            "NORMAL": 16,
            "POSITION": 15,
            "TANGENT": 17,
            "TEXCOORD_0": 18
          },
          "indices": 19,
          "material": 1,
          "mode": 4
        }
      ]
    }
  ],
  "nodes": [
    {
      "children": [
        1
      ],
      "name": "RootNode (gltf orientation matrix)",
      "rotation": [
        -0.70710678118654746,
        -0,
        -0,
        0.70710678118654757
      ]
    },
    {
      "children": [
        2
      ],
      "name": "RootNode (model correction matrix)"
    },
    {
      "children": [
        3
      ],
      "matrix": [
        1,
        0,
        0,
        0,
        0,
        0,
        1,
        0,
        0,
        -1,
        0,
        0,
        0,
        0,
        0,
        1
      ],
      "name": "e753a95c4a014d0ebf8ecf33ef97890b.fbx"
    },
    {
      "children": [
        4,
        6,
        8,
        10
      ],
      "name": "RootNode"
    },
    {
      "children": [
        5
      ],
      "matrix": [
        100,
        0,
        0,
        0,
        0,
        -1.6292067939183141e-05,
        -99.999999999998678,
        0,
        0,
        99.999999999998678,
        -1.6292067939183141e-05,
        0,
        93.454177856445312,
        1336.381103515625,
        -0.80604070425033569,
        1
      ],
      "name": "Plane"
    },
    {
      "mesh": 0,
      "name": "Plane_counter_0"
    },
    {
      "children": [
        7
      ],
      "matrix": [
        17.937128067016602,
        0,
        0,
        0,
        0,
        17.937128067016584,
        7.8405676968630752e-07,
        0,
        0,
        -7.8405676968630752e-07,
        17.937128067016584,
        0,
        734.05706787109375,
        1005.5107421875,
        -1157.822265625,
        1
      ],
      "name": "Circle"
    },
    {
      "mesh": 1,
      "name": "Circle_handle_0"
    },
    {
      "children": [
        9
      ],
      "matrix": [
        17.937128067016602,
        0,
        0,
        0,
        0,
        17.937128067016584,
        7.8405676968630752e-07,
        0,
        0,
        -7.8405676968630752e-07,
        17.937128067016584,
        0,
        2441.855712890625,
        1005.5107421875,
        -1157.822265625,
        1
      ],
      "name": "Circle.001"
    },
    {
      "mesh": 2,
      "name": "Circle.001_handle_0"
    },
    {
      "children": [
        11
      ],
      "matrix": [
        17.937128067016602,
        0,
        0,
        0,
        0,
        17.937128067016584,
        7.8405676968630752e-07,
        0,
        0,
        -7.8405676968630752e-07,
        17.937128067016584,
        0,
        1587.615234375,
        1793.715087890625,
        -1152.4510498046875,
        1
      ],
      "name": "Circle.002"
    },
    {
      "mesh": 3,
      "name": "Circle.002_handle_0"
    }
  ],
  "samplers": [
    {
      "magFilter": 9729,
      "minFilter": 9987,
      "wrapS": 10497,
      "wrapT": 10497
    }
  ],
  "scene": 0,
  "scenes": [
    {
      "name": "OSG_Scene",
      "nodes": [
        0
      ]
    }
  ],
  "textures": [
    {
      "sampler": 0,
      "source": 0
    },
    {
      "sampler": 0,
      "source": 1
    },
    {
      "sampler": 0,
      "source": 2
    },
    {
      "sampler": 0,
      "source": 3
    },
    {
      "sampler": 0,
      "source": 4
    },
    {
      "sampler": 0,
      "source": 5
    }
  ]
}

